# xmcd
#
# Track frame offsets:
#	150
#	20205
#	38503
#	60745
#	84257
#	108304
#	131241
#	156251
#	175826
#	198801
#	219380
#
# Disc length: 3293 seconds
#
# Revision: 1
# Processed by: cddbd v1.5.1PL0 Copyright (c) Steve Scherf et al.
# Submitted via: EasyCDDAExtractor 5.0.6
#
DISCID=8f0cdb0b
DTITLE=Beaucoup Blue - Love Breakin' Down
DYEAR=2002
DGENRE=Blues
TTITLE0=Love Breakin' Down
TTITLE1=Cup O' Tea
TTITLE2=Sweet to Sour
TTITLE3=You and I
TTITLE4=Baptized in the Blue
TTITLE5=Cowboy Kids
TTITLE6=Close the Book
TTITLE7=Carousel
TTITLE8=Without You
TTITLE9=Runway Walk
TTITLE10=The Servant
EXTD=
EXTT0=
EXTT1=
EXTT2=
EXTT3=
EXTT4=
EXTT5=
EXTT6=
EXTT7=
EXTT8=
EXTT9=
EXTT10=
PLAYORDER=
